<mxfile host="drawio-plugin" modified="2021-07-11T07:51:26.373Z" agent="5.0 (Macintosh; Intel Mac OS X 11_2_1) AppleWebKit/537.36 (KHTML, like Gecko) Chrome/89.0.4389.90 Safari/537.36" etag="agVRTrjA6kzpyg6wij8N" version="14.7.4" type="embed"><diagram id="TYB7NlHMd5oe03PsHszr" name="Page-1"><mxGraphModel dx="552" dy="505" grid="1" gridSize="10" guides="1" tooltips="1" connect="1" arrows="1" fold="1" page="1" pageScale="1" pageWidth="850" pageHeight="1100" math="0" shadow="0"><root><mxCell id="0"/><mxCell id="1" parent="0"/></root></mxGraphModel></diagram></mxfile>